# xmcd
#
# Track frame offsets:
#   150
#   270073
#   277573
#   320037
#
# Disc length: 4322 seconds
#
# Revision: 0
# Processed by: cddbd v1.5.1PL2 Copyright (c) Steve Scherf et al.
# Submitted via: uFREEDB ActiveX Control 1.5
#
DISCID=2810e004
DTITLE=asjoa - asasnd
DYEAR=1900
DGENRE=Books and Spoken
TTITLE0=musixa1
TTITLE1=m2
TTITLE2=m3
TTITLE3=m4
EXTD=sdskdie
EXTT0=
EXTT1=
EXTT2=
EXTT3=
PLAYORDER=
